<svg xmlns="http://www.w3.org/2000/svg" viewBox="0 0 100 100" fill="none">
  <!-- Large sparkle star: center 30,26 outer r=13 inner r=3.25 -->
  <path d="M30,13 L33.25,22.75 L43,26 L33.25,29.25 L30,39 L26.75,29.25 L17,26 L26.75,22.75 Z" fill="#0a5f75"/>
  <!-- Medium sparkle star: center 50,12 outer r=6 inner r=1.5 -->
  <path d="M50,6 L51.5,10.5 L56,12 L51.5,13.5 L50,18 L48.5,13.5 L44,12 L48.5,10.5 Z" fill="#0a5f75"/>
  <!-- Small sparkle star: center 15,42 outer r=5 inner r=1.25 -->
  <path d="M15,37 L16.25,40.75 L20,42 L16.25,43.25 L15,47 L13.75,43.25 L10,42 L13.75,40.75 Z" fill="#0a5f75"/>
  <!-- K letter: vertical bar -->
  <rect x="30" y="33" width="18" height="55" fill="#0a5f75"/>
  <!-- K letter: upper arm -->
  <polygon points="48,33 78,33 78,48 48,60" fill="#0a5f75"/>
  <!-- K letter: lower arm -->
  <polygon points="48,60 78,72 78,88 48,88" fill="#0a5f75"/>
</svg>
