<svg xmlns="http://www.w3.org/2000/svg" viewBox="0 0 100 100">
  <rect width="100" height="100" fill="#0a5f75"/>
  <!-- Large star at 28,24 -->
  <path d="M28,14 L30.5,21.5 L38,24 L30.5,26.5 L28,34 L25.5,26.5 L18,24 L25.5,21.5 Z" fill="white"/>
  <!-- Medium star at 43,10 -->
  <path d="M43,4 L44.5,9 L50,10.5 L44.5,12 L43,17 L41.5,12 L36,10.5 L41.5,9 Z" fill="white"/>
  <!-- Small star at 14,36 -->
  <path d="M14,30 L15.5,35 L21,36.5 L15.5,38 L14,43 L12.5,38 L7,36.5 L12.5,35 Z" fill="white"/>
  <!-- Bold K letter — white, centered right-bottom -->
  <!-- Vertical bar -->
  <rect x="38" y="38" width="13" height="50" rx="1" fill="white"/>
  <!-- Upper diagonal arm -->
  <polygon points="51,38 51,63 76,38" fill="white"/>
  <!-- Lower diagonal arm -->
  <polygon points="51,63 51,88 76,88" fill="white"/>
</svg>
